<?xml version="1.0" encoding="utf-8"?>
<!-- Generator: Adobe Illustrator 23.0.0, SVG Export Plug-In . SVG Version: 6.00 Build 0)  -->
<svg version="1.1" id="Capa_1" xmlns="http://www.w3.org/2000/svg" xmlns:xlink="http://www.w3.org/1999/xlink" x="0px" y="0px"
	 viewBox="0 0 326.2 326.2" style="enable-background:new 0 0 326.2 326.2;" xml:space="preserve">
<style type="text/css">
	.st0{fill:none;}
	.st1{fill-rule:evenodd;clip-rule:evenodd;fill:#F0F0F0;}
	.st2{fill-rule:evenodd;clip-rule:evenodd;fill:#DCDCDC;}
	.st3{fill-rule:evenodd;clip-rule:evenodd;fill:#FFFFFF;}
	.st4{fill-rule:evenodd;clip-rule:evenodd;fill:#FFDDB0;}
	.st5{fill:#B80040;}
	.st6{fill-rule:evenodd;clip-rule:evenodd;fill:#F2C488;}
	.st7{fill:#FFFFFF;}
	.st8{fill-rule:evenodd;clip-rule:evenodd;fill:#88C3BF;}
	.st9{fill-rule:evenodd;clip-rule:evenodd;fill:#FFB955;}
	.st10{fill-rule:evenodd;clip-rule:evenodd;fill:#B80040;}
	.st11{fill-rule:evenodd;clip-rule:evenodd;fill:#F55B2B;}
	.st12{fill-rule:evenodd;clip-rule:evenodd;fill:#113B53;}
	.st13{fill-rule:evenodd;clip-rule:evenodd;fill:#5E1212;}
	.st14{fill-rule:evenodd;clip-rule:evenodd;fill:#F73D52;}
	.st15{fill-rule:evenodd;clip-rule:evenodd;fill:#F63C4F;}
	.st16{fill-rule:evenodd;clip-rule:evenodd;fill:#FFC9A4;}
	.st17{fill-rule:evenodd;clip-rule:evenodd;fill:#FFCF62;}
	.st18{fill-rule:evenodd;clip-rule:evenodd;}
	.st19{fill-rule:evenodd;clip-rule:evenodd;fill:#92612B;}
	.st20{fill-rule:evenodd;clip-rule:evenodd;fill:#E1B785;}
	.st21{fill-rule:evenodd;clip-rule:evenodd;fill:#FF8763;}
	.st22{fill-rule:evenodd;clip-rule:evenodd;fill:#744734;}
	.st23{fill-rule:evenodd;clip-rule:evenodd;fill:#F63769;}
	.st24{fill-rule:evenodd;clip-rule:evenodd;fill:#6B6B6B;}
	.st25{fill:none;stroke:#000000;stroke-width:1.6095;stroke-miterlimit:10;}
	.st26{fill:none;stroke:#6B6B6B;stroke-miterlimit:10;}
	.st27{clip-path:url(#SVGID_2_);}
	.st28{fill:none;stroke:#000000;stroke-miterlimit:10;}
	.st29{fill:#202020;}
	.st30{fill-rule:evenodd;clip-rule:evenodd;fill:#003E54;}
	.st31{fill:#92612B;}
	.st32{fill:#272525;}
	.st33{fill-rule:evenodd;clip-rule:evenodd;fill:#1A8493;}
	.st34{fill:none;stroke:#000000;stroke-width:0.5033;stroke-miterlimit:10;}
	.st35{fill:none;stroke:#FFC9A4;stroke-width:0.5;stroke-miterlimit:10;}
	.st36{fill-rule:evenodd;clip-rule:evenodd;fill:none;}
	.st37{fill:none;stroke:#B80040;stroke-width:0.5689;stroke-miterlimit:10;}
	.st38{fill:none;stroke:#000000;stroke-width:0.6107;stroke-miterlimit:10;}
	.st39{fill-rule:evenodd;clip-rule:evenodd;fill:#376F91;}
	.st40{fill-rule:evenodd;clip-rule:evenodd;fill:#103A52;}
	.st41{fill:none;stroke:#000000;stroke-width:0.5;stroke-miterlimit:10;}
	.st42{fill:none;stroke:#FFC9A4;stroke-width:0.6517;stroke-miterlimit:10;}
	.st43{fill:none;stroke:#000000;stroke-width:1.3035;stroke-miterlimit:10;}
	.st44{fill:none;stroke:#FFFFFF;stroke-width:0.5435;stroke-miterlimit:10;}
	.st45{fill:none;stroke:#FFFFFF;stroke-miterlimit:10;}
	.st46{fill-rule:evenodd;clip-rule:evenodd;fill:none;stroke:#B80040;stroke-width:0.2514;stroke-miterlimit:10;}
	.st47{fill-rule:evenodd;clip-rule:evenodd;fill:none;stroke:#B80040;stroke-width:0.2788;stroke-miterlimit:10;}
	.st48{fill:none;stroke:#000000;stroke-width:1.6992;stroke-miterlimit:10;}
	.st49{stroke:#F2C488;stroke-width:0.5;stroke-miterlimit:10;}
	.st50{fill:none;stroke:#F2C488;stroke-width:0.5;stroke-miterlimit:10;}
	.st51{fill:none;stroke:#FFC9A4;stroke-width:2.2047;stroke-miterlimit:10;}
	.st52{fill:none;stroke:#000000;stroke-width:4.4093;stroke-miterlimit:10;}
	.st53{fill:#FFFFFF;stroke:#F2C488;stroke-width:0.75;stroke-miterlimit:10;}
	.st54{fill-rule:evenodd;clip-rule:evenodd;fill:#F4DFA5;}
	.st55{clip-path:url(#SVGID_4_);}
	.st56{fill-rule:evenodd;clip-rule:evenodd;fill:#32A3E3;}
	.st57{fill-rule:evenodd;clip-rule:evenodd;fill:#F485A5;}
	.st58{fill-rule:evenodd;clip-rule:evenodd;fill:#F40000;}
	.st59{clip-path:url(#SVGID_6_);}
	.st60{fill:none;stroke:#000000;stroke-width:2.2739;stroke-miterlimit:10;}
	.st61{fill-rule:evenodd;clip-rule:evenodd;fill:#F8EDD1;}
	.st62{clip-path:url(#SVGID_8_);}
	.st63{fill-rule:evenodd;clip-rule:evenodd;fill:#B3D1EC;}
	.st64{fill-rule:evenodd;clip-rule:evenodd;fill:#F498A5;}
	.st65{fill-rule:evenodd;clip-rule:evenodd;fill:#FFC436;}
	.st66{clip-path:url(#SVGID_10_);}
	.st67{fill-rule:evenodd;clip-rule:evenodd;fill:url(#SVGID_11_);}
	.st68{fill:#606060;}
	.st69{fill-rule:evenodd;clip-rule:evenodd;fill:url(#SVGID_12_);}
	.st70{fill-rule:evenodd;clip-rule:evenodd;fill:url(#SVGID_13_);}
	.st71{fill-rule:evenodd;clip-rule:evenodd;fill:#BEBEBE;}
	.st72{fill:#113B53;}
</style>
<g>
	<g>
		<path class="st10" d="M44.09,140.01c0.01,5.33,0.02,10.67,0,16c-0.04,10.85,3.71,21.07,7.38,31.22
			c1.93,5.33,4.59,10.27,6.73,15.53c2.93,7.2,6.77,13.63,10.65,20.34c4.36,7.55,9.5,14.53,14.14,21.93
			c4.8,7.65,9.69,13.22,16.69,18.82c2.91,2.33,5.19,4.6,8.49,6.48c3.13,1.78,5.96,3.31,9.28,4.63c5.55,2.21,11.06,4.51,16.69,6.51
			c4.87,1.73,10.19,2.94,15.21,4.17c5.48,1.34,11.72,1.57,17.37,1.18c5.78-0.4,11.71-1.77,17.39-3.06
			c7.18-1.63,14.31-3.28,21.06-6.2c4.25-1.84,7.91-4.45,12.35-5.87c2.6-0.83,4.58-1.89,6.86-3.43c2.29-1.55,4.41-2.71,6.89-3.84
			c1.8-0.81,2.94-2.15,4.35-3.46c2.01-1.87,4.17-3.5,6.35-5.18c6.08-4.69,11.29-10.92,16.69-16.19c2.54-2.48,4.3-5.74,6.72-8.39
			c2.8-3.05,4.75-6.73,7.34-9.94c0.81-1,1.77-1.75,2.62-2.7c1.5-1.69,1.41-3.23,2.24-5.16c1.15-2.68,2.39-5.01,3.27-7.85
			c1.81-5.83,1.16-11.95,1.16-18.02c0-11.98-2.13-24.62-5.78-36.13c-0.98-3.07-1.78-6.19-2.78-9.25c-1.05-3.21-2.98-5.71-4.21-8.83
			c-1.24-3.14-2.39-5.78-3.94-8.79c-1.67-3.25-2.15-6.45-4.37-9.52c-2.02-2.8-3.02-5.91-5.09-8.75c-2.24-3.06-4.08-6.23-6.45-9.25
			c-2.76-3.52-5.03-7.11-7.44-10.9c-2.48-3.91-5.31-7.5-7.87-11.34c-4.43-6.64-10.17-11.65-17.82-14.09
			c-5.12-1.63-10.21-4.5-14.74-7.31c-1.53-0.95-2.4-2.51-4-3.42c-1.45-0.83-2.49-0.91-3.72-2.19c-2.1-2.19-3.59-5.34-5.07-7.96
			c-1.31-2.32-67.75,3.36-70.41,3.15C87.85,40.49,44.08,134.34,44.09,140.01z"/>
	</g>
	<g>
		<path class="st3" d="M70.44,147.83c0.01,3.7,0.01,7.4,0,11.1c-0.03,7.52,2.57,14.62,5.12,21.66c1.34,3.7,3.19,7.12,4.67,10.77
			c2.03,5,4.7,9.46,7.39,14.11c3.03,5.23,6.59,10.08,9.81,15.21c3.33,5.31,6.72,9.17,11.58,13.06c2.02,1.62,3.6,3.19,5.89,4.49
			c2.17,1.23,4.13,2.29,6.43,3.21c3.85,1.53,7.67,3.13,11.58,4.51c3.38,1.2,7.07,2.04,10.55,2.89c3.8,0.93,8.13,1.09,12.05,0.82
			c4.01-0.28,8.12-1.23,12.06-2.12c4.98-1.13,9.93-2.28,14.61-4.3c2.95-1.28,5.49-3.09,8.57-4.07c1.8-0.58,3.18-1.31,4.76-2.38
			c1.59-1.07,3.06-1.88,4.78-2.66c1.25-0.57,2.04-1.49,3.02-2.4c1.39-1.3,2.89-2.43,4.4-3.6c4.22-3.26,7.83-7.58,11.58-11.23
			c1.76-1.72,2.98-3.98,4.66-5.82c1.94-2.12,3.29-4.67,5.09-6.9c0.56-0.69,1.23-1.21,1.82-1.88c1.04-1.17,0.98-2.24,1.55-3.58
			c0.79-1.86,1.66-3.48,2.27-5.44c1.25-4.04,0.81-8.29,0.81-12.5c0-8.31-1.48-17.08-4.01-25.06c-0.68-2.13-1.23-4.29-1.93-6.42
			c-0.73-2.23-2.07-3.96-2.92-6.12c-0.86-2.18-1.66-4.01-2.73-6.1c-1.16-2.25-1.49-4.47-3.03-6.6c-1.4-1.94-2.1-4.1-3.53-6.07
			c-1.56-2.13-2.83-4.32-4.47-6.42c-1.91-2.44-3.49-4.93-5.16-7.56c-1.72-2.71-3.68-5.2-5.46-7.86c-3.08-4.61-7.05-8.08-12.36-9.78
			c-3.55-1.13-7.09-3.12-10.23-5.07c-1.06-0.66-1.67-1.74-2.78-2.37c-1.01-0.57-1.73-0.63-2.58-1.52c-1.46-1.52-2.49-3.71-3.52-5.52
			c-0.91-1.61-47,2.33-48.84,2.19C100.79,78.79,70.43,143.9,70.44,147.83z"/>
	</g>
	<g>
		<path class="st6" d="M85.8,132.47c0.01,3.7,0.01,7.4,0,11.1c-0.03,7.52,2.57,14.62,5.12,21.66c1.34,3.7,3.19,7.12,4.67,10.77
			c2.03,5,4.7,9.46,7.39,14.11c3.03,5.23,6.59,10.08,9.81,15.21c3.33,5.31,6.72,9.17,11.58,13.06c2.02,1.62,3.6,3.19,5.89,4.49
			c2.17,1.23,4.13,2.29,6.43,3.21c3.85,1.53,7.67,3.13,11.58,4.51c3.38,1.2,7.07,2.04,10.55,2.89c3.8,0.93,8.13,1.09,12.05,0.82
			c4.01-0.28,8.12-1.23,12.06-2.12c4.98-1.13,9.93-2.28,14.61-4.3c2.95-1.28,5.49-3.09,8.57-4.07c1.8-0.58,3.18-1.31,4.76-2.38
			c1.59-1.07,3.06-1.88,4.78-2.66c1.25-0.57,2.04-1.49,3.02-2.4c1.39-1.3,2.89-2.43,4.4-3.6c4.22-3.26,7.83-7.58,11.58-11.23
			c1.76-1.72,2.98-3.98,4.66-5.82c1.94-2.12,3.29-4.67,5.09-6.9c0.56-0.69,1.23-1.21,1.82-1.88c1.04-1.17,0.98-2.24,1.55-3.58
			c0.79-1.86,1.66-3.48,2.27-5.44c1.25-4.04,0.81-8.29,0.81-12.5c0-8.31-1.48-17.08-4.01-25.06c-0.68-2.13-1.23-4.29-1.93-6.42
			c-0.73-2.23-2.07-3.96-2.92-6.12c-0.86-2.18-1.66-4.01-2.73-6.1c-1.16-2.25-1.49-4.47-3.03-6.6c-1.4-1.94-2.1-4.1-3.53-6.07
			c-1.56-2.13-2.83-4.32-4.47-6.42c-1.91-2.44-3.49-4.93-5.16-7.56c-1.72-2.71-3.68-5.2-5.46-7.86c-3.08-4.61-7.05-8.08-12.36-9.78
			c-3.55-1.13-7.09-3.12-10.23-5.07c-1.06-0.66-1.67-1.74-2.78-2.37c-1.01-0.57-1.73-0.63-2.58-1.52c-1.46-1.52-2.49-3.71-3.52-5.52
			c-0.91-1.61-47,2.33-48.84,2.19C116.15,63.43,85.79,128.54,85.8,132.47z"/>
	</g>
	<g>
		<path class="st18" d="M192.22,74.4c-2.17,0.14-4.75-0.01-7.74-0.2c-2.97-0.21-6.36-0.4-9.86-0.52c-3.48-0.09-7.16-0.05-10.31,0.23
			l-1.12,0.11l-1,0.13l-0.81,0.12c-0.15,0.03-0.39,0.06-0.42,0.06l0.01-0.01l0,0l-0.2-0.59c-0.32-0.93-0.65-1.86-1.01-2.77
			l-0.55-1.37l-0.04-0.09c-1.66-4.34,2.22,5.81,1.81,4.77l-0.03,0.01l-0.06,0.02l-0.11,0.04l-0.46,0.15c-0.61,0.2-1.21,0.4-1.81,0.6
			c-1.19,0.39-2.41,0.83-3.51,1.16c-2.55,0.83-6.68,2.18-9.8,2.8c-3.18,0.64-5.43,0.66-5.06-0.94c0,0.01,0.21-0.01,0.57-0.07
			c0.37-0.06,0.91-0.14,1.55-0.24c1.35-0.23,3.08-0.5,4.99-0.85c3.74-0.65,7.94-1.64,8.41-1.81c0.99-0.4,2.48-1.04,4.33-1.85
			l0.35-0.15l0.09-0.04l0.04-0.02l0.02-0.01l0.01,0c-0.61-1.61,1.38,3.59-1.36-3.6l0.46,1.14c0.3,0.76,0.59,1.54,0.87,2.33
			c0.05,0.14,0.04,0.1,0.04,0.1l0,0l0-0.01l0-0.01l-0.01-0.03l0.11-0.06l0.23-0.13c0.38-0.19,1-0.41,1.73-0.64
			c2.99-0.93,7.66-1.76,12.24-1.99c4.6-0.24,9.22,0.1,12.6,1.05c3.45,0.9,5.47,2.35,6,3.73C193.37,74.67,192.44,74.4,192.22,74.4z"
			/>
		<path class="st18" d="M139.6,79.17c0.11,0.35-0.51,0.79-1.53,1.27c-0.96,0.47-2.32,0.97-3.76,1.45c-1.34,0.49-2.83,0.94-4.03,1.35
			c-1.18,0.4-2.19,0.73-2.76,0.93c-0.89,0.34-1.95,0.74-3.13,1.19c-1.11,0.49-2.33,1.02-3.58,1.63c-1.17,0.67-2.53,1.28-3.71,2.11
			c-0.6,0.41-1.28,0.75-1.87,1.21c-0.6,0.45-1.2,0.91-1.8,1.36c-4.78,3.61-9.1,9.39-11.35,12.99c-0.38,0.68-0.86,1.7-1.4,2.86
			c-0.5,1.19-0.9,2.61-1.4,3.93c-0.81,2.76-1.56,5.36-2.07,6.2c-0.61,0.94-0.58-0.88-0.11-2.7c0.45-1.82,1.02-3.8,1.01-3.45
			c0.22-1.06-1.11-0.41-1.02,0.37c-0.1-1.52,0.19-2.97,0.68-4.14c0,0,0.9,2.09,1.09,1.91c0.53-0.44,0.96-1.38,1.56-2.45
			c0.63-1.05,1.16-2.41,1.85-3.75c0.77-1.3,1.35-2.74,2.21-4.02c0.85-1.26,1.58-2.55,2.32-3.39c0.33-0.35,3.12-3.13,3.01-3.36
			c-0.75-1.43-4.23,4.19-4.1,3.33c0.06-0.51,0.57-1.6,1.43-2.95c0.41-0.7,0.98-1.36,1.64-2c0.66-0.63,1.34-1.35,2.18-1.84
			c0-0.05-0.06,2.21,0.21,2.14c0.33-0.15,1.71-1.56,3.57-3.22c1.93-1.57,4.42-3.33,6.83-4.03c0,0,0.25-0.11,0.67-0.29
			c0.42-0.19,1-0.46,1.79-0.72c0.77-0.28,1.66-0.6,2.62-0.95c1.02-0.31,2.11-0.64,3.2-0.98C134.31,79.89,139.48,78.84,139.6,79.17z"
			/>
		<path class="st18" d="M217.53,85.37c0,0.12-0.02,0.25-0.04,0.39c0,0.06,0,0.13-0.01,0.22l0.01-0.02c0.01-0.04,0.01-0.18,0-0.23
			l0-0.01l0,0l0,0l0,0l0.04,0.4l-0.04-0.4l0,0l0,0l0,0c0,0.01,0,0.02,0,0.04c0,0-0.02-0.22-0.01-0.3
			C217.49,85.27,217.53,85.04,217.53,85.37z"/>
		<path class="st18" d="M197.39,75.54C197.11,75.74,197.84,75.24,197.39,75.54L197.39,75.54z"/>
		<path class="st18" d="M197.29,75.42C197.03,75.67,197.68,75.02,197.29,75.42L197.29,75.42z"/>
		<path class="st18" d="M197.05,75.16c-0.17,0.23-0.31,0.29-0.47,0.24c-0.24-0.04-0.33-0.22-0.6-0.41
			c-0.42-0.42-0.52-0.82,0.62-0.23C196.67,74.82,197.23,74.98,197.05,75.16z"/>
		<path class="st18" d="M96.58,164.23c0.39-0.48,1.74,2.54,1.28,3.17C97.47,167.89,96.07,164.84,96.58,164.23z"/>
		<path class="st18" d="M218.15,84.68c-0.23,0.61-0.35,0.83-0.42,0.84c-0.06,0.01-0.04-0.09-0.02-0.31
			c0.02-0.21,0.06-0.48,0.12-0.64c0.03-0.08,0.07-0.14,0.11-0.16C218,84.41,218.08,84.53,218.15,84.68z"/>
		<path class="st18" d="M176.48,69.31c0.34,0.44-1.79,1.27-2.15,0.84C173.95,69.71,176.11,68.87,176.48,69.31z"/>
		<path class="st18" d="M162.5,70.3c0.33,0.34-0.77,1.27-0.97,1.07C161.17,71.03,162.28,70.1,162.5,70.3z"/>
		<path class="st18" d="M94.63,121.41c-1.42,2.27-0.81,0.82-0.31-0.88c0.58-1.64,1.14-3.49-0.77-2.3c-1.7,1.07,1.17,3.44-1.57,3.46
			c0.37,3.47-0.51,5.46-1.4,7.61c-0.47,1.06-0.75,2.22-0.86,3.58c-0.09,1.36,0.05,2.95,0.83,4.96c-0.08-0.96,1.25-0.47,0,0
			c0.71,3.12-0.64,5.74-0.7,9.68c0.01,1.59-0.01,8.81,1.55,8.97c-0.12-0.03,2.74-4.21,3-5.18c0.33-1.39,0.3-3.52,0.3-5.88
			c-0.02-1.19-0.07-2.46-0.16-3.77c-0.04-1.29-0.09-2.6-0.17-3.91c-0.1-1.32-0.15-2.6-0.18-3.81c-0.06-1.22-0.11-2.39-0.16-3.46
			c-0.01-2.08-0.06-3.79-0.11-4.75c0.12,2.55-3.44-1.9,1.18-2.04C95.51,122.36,96.78,118.1,94.63,121.41z M92.85,127.88
			c0.44-0.31,0.95,1.4,0.69,1.58C93.09,129.77,92.59,128.06,92.85,127.88z M92.55,130.89c1.17-0.92-0.17,9.24-0.12,2.31
			C92.43,132.9,92.33,131.07,92.55,130.89z M92.27,137.07c1.29,0.18,1.2,3.29,0.87,5.67c-0.33,2.37-1.13,3.96-1.7,0.67
			c0.11,0.53,0.37-1.09,0.67-2.78C92.4,138.93,92.59,137.12,92.27,137.07z M90.8,131.55C91.18,131.24,90.21,132.02,90.8,131.55
			L90.8,131.55z"/>
		<path class="st18" d="M95.12,123.7C97.63,124.22,93.8,126.53,95.12,123.7L95.12,123.7z"/>
		<path class="st18" d="M99.03,185.16c0.18-0.26,0.66,0.38,1.03,1.16c0.18,0.44,0.35,0.73,0.44,0.97c0.09,0.26,0.1,0.48-0.01,0.6
			c-0.18,0.2-0.65-0.21-1.04-0.75C99.07,186.49,98.8,185.46,99.03,185.16z"/>
		<path class="st18" d="M223.62,87.4c-0.46-0.36-0.11-1.34-0.17-1.38c1.8,1.34,1.22,3.43,2.47,5.29c1.49,2.12,3.59,4.19,5.97,6.55
			c2.29,2.44,4.72,5.34,6.4,9.02c-1.17-2.57-1.24-4.02-0.94-4.14c0.37-0.15,1.14,1.1,1.76,3.9l0.82-0.24
			c-2.66-6.42-6.31-12.45-10.65-16.61c-1.04-1.11-2.18-1.94-3.24-2.79c-0.54-0.4-1.1-0.69-1.63-1.03c-0.27-0.16-0.53-0.34-0.79-0.48
			l-0.78-0.33c-1.03-0.54-1.97-0.64-2.81-0.86c-0.4,0.03-0.75,0.06-1.09,0.07l-0.24,0l-0.2,0.11l-0.35,0.19
			c0.11,0.06,0.24,0.08,0.37,0.08c0.16,0.06,0.35,0.17,0.53,0.22c0.2,0.08,0.39,0.05,0.62,0.17c0.24,0.13,0.48,0.24,0.73,0.34
			c0.5,0.12,1.06,0.52,1.61,0.82C222.57,86.55,223.11,86.99,223.62,87.4z M229.1,91.29c-0.17,0.49-1.99-0.5-1.82-1.02
			C227.43,89.75,229.25,90.78,229.1,91.29z M231.62,93.63C231.46,94.05,231.86,92.97,231.62,93.63L231.62,93.63z M235.86,100.13
			c-0.24,0.48-2.29-1.56-1.97-2.22C234.12,97.37,236.21,99.44,235.86,100.13z"/>
		<path class="st18" d="M100.14,193.04c0.28-0.39,1.4,0.59,1.24,0.82C101.1,194.27,99.98,193.28,100.14,193.04z"/>
		<path class="st18" d="M100.79,194.73c-0.27,0.43,0.49,1.42,1.53,2.15c0.97,0.79,1.84,1.57,1.52,2.21c0,0-1.02-0.51-1.99-1.33
			c-0.47-0.41-0.96-0.88-1.2-1.4C100.46,195.79,100.46,195.23,100.79,194.73z"/>
		<path class="st18" d="M187.11,68.62c-0.12-0.29-5.32-1.04-11.22-0.8c-2.92,0.1-5.92,0.39-8.28,0.73c-2.36,0.34-4.06,0.69-4.62,0.8
			c-1.28,0.21-2.49,0.47-3.15,0.66c-0.5,0.15,0.03-0.05-1.26,0.41c-0.89,0.31-1.77,0.62-2.65,0.92c-3.49,1.18-6.74,2.11-9.83,2.95
			c-6.15,1.66-11.54,2.94-16.43,4.47c-9.76,3.08-17.63,6.8-24.87,15.66c-0.2,0.18-0.73,0.84-1.43,1.73
			c-0.66,0.89-1.69,1.93-2.39,3.03c-0.75,1.09-1.51,2.13-2.09,2.88c-0.52,0.79-0.85,1.29-0.9,1.2c-0.13-0.3-0.09-0.82,0.1-1.51
			c0.25-0.65,0.65-1.47,1.16-2.4c0.49-0.93,1.1-1.97,1.94-3.01c0.82-1.02,1.59-2.23,2.57-3.19c3.68-4.21,8.29-7.24,9.74-8.16
			c3.49-2.51,7.01-4.28,10.71-5.64c3.7-1.38,7.38-2.46,11.46-3.46c4.07-1.04,8.32-2,13.25-3.35c2.47-0.7,5.04-1.42,7.84-2.41
			c0.69-0.24,1.4-0.48,2.11-0.73l0.24-0.08l0.05-0.01l0.1-0.03c0.03-0.02,0.17-0.05,0.35-0.09c0.56-0.17,1.57-0.37,2.56-0.56
			c3.16-0.59,7.84-1.65,12.43-1.98c4.59-0.33,9.08,0.11,11.82,1.87C186.56,68.58,187.04,68.49,187.11,68.62z"/>
		<path class="st18" d="M103.4,97.71c0.49-0.02,0.15,0.79-0.49,1.91c-0.53,1.16-1.44,2.6-2.24,3.9c-1.42,2.7-2.84,4.62-1.46,1.13
			C99.18,104.32,102.4,97.71,103.4,97.71z"/>
		<path class="st18" d="M96.07,112.25c1.88-0.07-2.27,4.24-1.2,4.06C94.74,116.29,94.93,112.3,96.07,112.25z"/>
		<path class="st18" d="M128.53,221.84c-6.22-2.04-11.97-4.8-16.73-8.33c-4.77-3.52-8.49-7.81-10.91-12.66
			c-0.55-1.47-1.37-2.77-1.98-4.21c-0.51-1.5-1.24-2.89-1.75-4.4c-0.44-1.57-0.87-3.13-1.3-4.67c-0.38-2.02-0.72-4.03-0.97-6.02
			c0.11,0.88,1.23-1.7,1.12-3.65c-0.43-5.39-1.14-14.53-1.82-19.2c-0.13-0.96,0.06-2.38-0.32-3.26c-1.54-3.53,1.95,7.45-1.38,3.44
			c0,0-0.38-0.33-0.79-0.57c-0.41-0.24-0.85-0.4-1-0.08c-1.53,3.19-0.84,9.36,0.42,15.72c0.69,3.2,1.43,6.43,2.17,9.41
			c0.36,1.49,0.69,2.91,0.96,4.23c0.29,1.18,0.55,2.03,0.7,2.9c0.35,2.88,0.94,5.57,1.45,8.4c0.42,1.35,0.84,2.7,1.25,4.02
			c0.53,1.29,1.25,2.46,1.95,3.63c0.2,0.32,0.4,0.64,0.62,0.95c0.25,0.28,0.5,0.55,0.75,0.82c0.5,0.53,0.99,1.06,1.47,1.57
			c0.9,1.08,2.03,1.91,2.99,2.9c1.41,1.61,3.28,2.88,5.02,4.37c1.96,1.25,3.87,2.7,6.12,3.77c2.14,1.24,4.54,2.18,6.94,3.21
			c1.25,0.43,2.5,0.86,3.77,1.29c1.27,0.44,2.6,0.72,3.91,1.09c5.29,1.33,10.95,2.13,16.56,2.2c1.63,0.02,3.27,0.04,4.91,0.06
			c1.81-0.03,3.63,0.21,5.44,0.35c3.6,0.44,7.2,1.12,10.51,2.07c3.32,0.89,6.47,1.95,9.28,2.76c2.83,0.81,5.42,1.38,7.89,1.6
			c2.46,0.15,4.89-0.06,7.37-0.59c1.24-0.32,2.49-0.68,3.74-1.09c1.24-0.52,2.51-0.94,3.74-1.52c4.9-2.29,9.72-5.42,14.14-8.66
			c4.42-3.28,8.55-6.7,12.22-10.21c3.69-3.53,7.18-7.24,10.15-11.23c2.99-3.97,5.68-8.11,7.68-12.44c2.05-4.3,3.59-8.76,4.24-13.13
			c0.68-4.52,0.8-9.39,0.7-14.22c-0.21-9.7-1.35-19.47-2.95-29.09c-1.69-9.5-3.65-19.49-6.88-26.96c1.66,3.94-0.34,4.4-0.82,0.24
			l-0.82,0.24c1.38,3.48,2.43,6.81,3.35,11.14c0.92,4.18,1.67,8.59,2.3,13.06c1.26,8.94,2.05,18.24,2.13,27.46
			c0.04,4.6-0.09,9.23-0.59,13.55c-0.11,1.1-0.3,2.09-0.43,3.15c-0.15,1.04-0.4,1.92-0.58,2.9c-0.61,1.93-1.07,3.89-1.95,5.84
			c-1.51,3.92-3.7,7.81-6.18,11.58c-2.43,3.8-5.4,7.4-8.46,10.91c-3.12,3.48-6.51,6.77-10.03,9.9c-3.57,3.07-7.3,5.95-11.12,8.49
			c-0.96,0.6-1.92,1.25-2.88,1.82c-0.96,0.54-1.92,1.12-2.87,1.62c-0.95,0.44-1.87,0.97-2.82,1.35l-2.83,1.14
			c-3.78,1.32-7.01,1.68-10.46,1.23c-1.71-0.16-3.66-0.68-5.74-1.25c-2.37-0.73-4.73-1.45-7.09-2.18
			c-5.13-1.57-11.15-2.96-17.16-3.29c-1.5-0.1-2.99-0.08-4.49-0.12l-3.42-0.08c-1.02,0.01-2.08-0.1-3.12-0.2
			c-1.05-0.1-2.09-0.15-3.13-0.34C136.53,224.11,132.45,223.01,128.53,221.84z M94.06,176.49c0.33-0.46,1.32,1.27,1.12,1.54
			C94.84,178.5,93.86,176.76,94.06,176.49z M241.32,112.13c-0.33,0.41-1.32-1.01-1.12-1.25
			C240.52,110.44,241.51,111.88,241.32,112.13z M245.16,128.12c-0.41,0.47-1.69-2.66-1.17-3.27
			C244.39,124.36,245.67,127.51,245.16,128.12z M130.69,225.87C130.45,225.45,131.07,226.53,130.69,225.87L130.69,225.87z
			 M247.89,145.84c-0.39,0.41-1.14-1.43-0.91-1.68C247.38,143.75,248.12,145.59,247.89,145.84z M235.53,201.04
			C235.04,201.1,236.31,200.96,235.53,201.04L235.53,201.04z M244.97,185.21c-0.55,0.18-0.42-2.26,0.12-2.46
			C245.68,182.54,245.52,185.01,244.97,185.21z"/>
		<path class="st18" d="M104.07,202.45c-0.16,0.46,0.13,0.95,0.62,1.45c0.59,0.43,1.41,0.84,2.19,1.25
			c1.48,0.89,3.23,1.43,3.09,2.49c-0.01,0.05-0.42-0.12-1.05-0.42c-0.31-0.16-0.69-0.35-1.09-0.55c-0.37-0.24-0.72-0.53-1.1-0.82
			c-0.75-0.59-1.51-1.23-2.07-1.8C104.18,203.39,103.94,202.81,104.07,202.45z"/>
		<path class="st18" d="M200.41,73.93c0.46-0.46-0.69-1.13-3.54-1.97c-2.77-0.88-7.12-1.44-7.82-2.95c0.45,1,4.67,0.91,7.86,1.7
			C200.22,71.46,201.72,72.85,200.41,73.93z"/>
		<path class="st18" d="M113.99,212.83c0.09,0.33,3.17,1.55,6.59,2.43c0.81,0.28,1.69,0.48,2.52,0.68c0.83,0.21,1.6,0.44,2.28,0.69
			c1.38,0.45,2.44,0.88,2.69,1.5c-0.11-0.27-1.02-0.44-2.36-0.58c-1.29-0.23-3.01-0.47-4.76-0.81c-1.65-0.48-3.47-0.9-4.72-1.62
			C114.98,214.39,114.09,213.63,113.99,212.83z"/>
		<path class="st18" d="M97.38,104.5c0.51-0.11,0.45,1.54,0.15,1.6C97.01,106.24,97.08,104.58,97.38,104.5z"/>
		<path class="st18" d="M94.88,110.34c0.49-0.2,0.7,2.12,0.17,2.32C94.53,112.89,94.34,110.54,94.88,110.34z"/>
		<path class="st18" d="M128.29,219.97c-0.38-0.57,8.47,1.71,15.27,1.95c0.84,0.05,1.64,0.1,2.39,0.15c0.73,0.01,1.41,0.01,2,0.02
			c0.66,0.02,1.23,0.03,1.7,0.05c0.67,0.01,1.18,0.03,1.5,0.05c1.51,0.08-1.54,0.24-5.62,0.36c-0.38-0.01-1.56,0.03-3.16,0.1
			c-0.8,0.04-1.71-0.03-2.68-0.05c-0.96-0.03-1.98-0.04-2.99-0.19c-1.01-0.13-2.02-0.26-2.97-0.38c-0.95-0.17-1.82-0.41-2.6-0.62
			c-0.77-0.22-1.44-0.44-1.93-0.67C128.72,220.48,128.4,220.22,128.29,219.97z"/>
		<path class="st18" d="M91.98,121.68c-1.14-1.04-0.73-2.23-0.17-2.5C92.36,118.91,92.83,119.39,91.98,121.68z"/>
		<path class="st18" d="M170.33,225.62c-0.2-0.27,0.51-0.44,1.28-0.46c0.75-0.02,1.59,0.1,1.76,0.38
			C173.72,226.08,170.79,226.15,170.33,225.62z"/>
		<path class="st18" d="M174.08,226.61c-0.62-1.13,5.27,0.56,8.26,1.35c0.74,0.16,1.39,0.34,1.93,0.51
			c0.48,0.11,0.83,0.21,0.99,0.31c0.16,0.09,0.12,0.17-0.2,0.21c-0.31,0.05-0.9,0.08-2-0.09c-0.07-0.02-0.46,0-1.19-0.11
			c-0.77-0.14-1.63-0.21-2.78-0.5c-0.55-0.13-1.1-0.26-1.62-0.39c-0.55-0.14-1.11-0.31-1.58-0.46
			C174.93,227.14,174.25,226.85,174.08,226.61z"/>
		<path class="st18" d="M186.36,229.27c-0.21-0.4,0.85-1.11,0.98-0.86C187.6,228.82,186.51,229.5,186.36,229.27z"/>
		<path class="st18" d="M243.68,155.11C243.31,155.45,244.24,154.57,243.68,155.11L243.68,155.11z"/>
		<path class="st18" d="M192.82,229.17c0,0,0.55-0.53,1.13-1c0.58-0.45,1.26-1.06,1.51-0.88c0.01,0.01-0.03,0.21-0.14,0.49
			c-0.11,0.28-0.28,0.64-0.51,0.98C194.35,229.38,193.64,229.78,192.82,229.17z"/>
		<path class="st18" d="M196.4,227.82c-0.3-0.17,0.14-0.56,0.88-0.99c0.75-0.54,1.78-1.08,2.77-1.62c1.99-1.15,3.61-1.78,1.28,0.07
			c0.05-0.06-1.03,0.86-2.16,1.49c-0.57,0.33-1.16,0.7-1.67,0.89C197,227.85,196.59,227.93,196.4,227.82z"/>
		<path class="st18" d="M203.24,224.14c1.01,0.24,2.46-1.36,3.83-3.18c1.4-1.74,2.71-3.58,3.86-3.39c0.1-0.01-1.32,1.9-3.09,3.55
			C206.09,222.87,204.04,224.33,203.24,224.14z"/>
		<path class="st18" d="M212.08,217.75c-1.23-0.1,7.72-7.33,2.44-2.04C214.21,216.02,212.51,217.84,212.08,217.75z"/>
		<path class="st18" d="M223.25,207.53c0,0,1.42-3.49,2.06-3.49c0.01,0,0.04,0.22,0.03,0.54c-0.01,0.32-0.05,0.76-0.17,1.2
			C224.94,206.65,224.39,207.54,223.25,207.53z"/>
		<path class="st18" d="M237.36,189.06c-0.5,0.1-0.37-1.65-0.07-1.71C237.8,187.23,237.68,188.99,237.36,189.06z"/>
		<path class="st18" d="M239.06,185.8c-0.51,0.12-0.4-1.59-0.16-1.66C239.43,184,239.41,185.72,239.06,185.8z"/>
		<path class="st18" d="M211.89,220.07C211.4,220,212.65,220.19,211.89,220.07L211.89,220.07z"/>
		<path class="st18" d="M202.99,68.99c-0.09,0.34-1.8-1.23-4.92-2.53c-2.97-1.37-7.05-2.26-7.88-2.45
			c-6.58-1.45-12.36-1.65-17.85-1.54c-2.76,0.08-5.49,0.28-8.26,0.65c-1.38,0.18-2.77,0.41-4.09,0.69c-0.63,0.15-1.3,0.3-1.82,0.46
			c-0.31,0.08-0.49,0.15-0.69,0.22l-0.49,0.17l-0.72,0.26c-2.29,0.91-9.57,3.16-14.3,4.34c-2.4,0.62-4.17,1.05-4.59,1.07
			c-0.4,0.02,0.47-0.37,3.71-1.43c4.42-1.46,8.91-2.87,13.41-4.53c2.73-1,3.23-1.23,5.15-1.64c1.73-0.37,3.66-0.65,5.62-0.85
			c7.86-0.76,16.56-0.58,25.12,1.29c1.54,0.33,5.24,0.92,8.1,2.14C201.42,66.48,203.27,68.15,202.99,68.99z"/>
		<path class="st18" d="M135.83,69.57c0.52,0.29-1.67,1.85-2.19,1.57C133.1,70.85,135.25,69.27,135.83,69.57z"/>
		<path class="st18" d="M132.58,70.57c-1.13-0.57-5.41,3.87-6.71,3.21c0,0,0.99-1.15,2.4-2.09
			C129.63,70.72,131.36,69.92,132.58,70.57z"/>
		<path class="st18" d="M124.81,73.27c0.54,0.26-1.96,2.27-2.61,1.99c-0.28-0.12,0.18-0.71,0.8-1.24
			C123.64,73.52,124.46,73.1,124.81,73.27z"/>
		<path class="st18" d="M116.95,76.82C117.41,76.99,116.24,76.56,116.95,76.82L116.95,76.82z"/>
		<path class="st18" d="M237.15,91.22c-0.16,0.52-2.08-0.94-1.92-1.48C235.38,89.19,237.37,90.62,237.15,91.22z"/>
		<path class="st18" d="M107.01,82.46c0,0-0.44,0.8-0.94,1.57c-0.5,0.78-0.98,1.63-1.3,1.6c-0.01,0-0.03-0.22-0.01-0.54
			c0.02-0.32,0.08-0.75,0.21-1.18C105.23,83.05,105.89,82.3,107.01,82.46z"/>
		<path class="st18" d="M102.53,86.62c-0.26-0.04-0.89,0.85-1.74,2.16c-0.41,0.66-0.89,1.41-1.4,2.23
			c-0.45,0.86-0.93,1.78-1.42,2.71c-1.98,3.66-3.54,7.44-4.87,7.86c0.36-0.08,0.69-1.11,1.25-2.53c0.63-1.38,1.2-3.31,2.13-5.16
			C98.25,90.11,100.81,86.57,102.53,86.62z"/>
		<path class="st18" d="M91.29,103.27c0.64-0.25-0.31,2.71-1.25,4.96c-0.83,2.3-1.58,4-1.06,0.85c-0.04,0.04,0.28-1.34,0.78-2.76
			C90.26,104.9,90.79,103.38,91.29,103.27z"/>
		<path class="st18" d="M87.82,112.85c0.63-0.36-0.04,2.75-0.61,4.8c-0.31,1.01-0.52,1.8-0.61,1.71c-0.11-0.1-0.04-1.05,0.45-3.42
			C87.15,115.49,87.36,113.02,87.82,112.85z"/>
		<path class="st18" d="M85.81,122.24c0.51-0.32,0.91,2.15,0.48,2.51C85.78,125.09,85.29,122.57,85.81,122.24z"/>
		<path class="st18" d="M239.38,93.52c-0.19,0.5-1.61-0.66-1.5-0.95C238.06,92.05,239.49,93.22,239.38,93.52z"/>
		<path class="st18" d="M118.26,74.22c0,0-0.64,0.7-1.33,1.37c-0.7,0.67-1.47,1.28-1.75,1.2C115.05,76.75,116.1,73.45,118.26,74.22z
			"/>
		<path class="st18" d="M114.09,76.45c0.54,0.18-0.99,2.1-1.55,1.93C111.96,78.23,113.52,76.29,114.09,76.45z"/>
		<path class="st18" d="M83.97,131.08c0.45-0.38,1.18,2.13,0.72,2.53C84.23,134.01,83.51,131.48,83.97,131.08z"/>
		<path class="st18" d="M83.72,136.06c0.94-0.91,0.52,11.18-0.03,3.35C83.66,138.94,83.41,136.35,83.72,136.06z"/>
		<path class="st18" d="M83.76,144.45c0.44-0.45,1.51,2.75,0.96,3.33C84.29,148.24,83.21,145.03,83.76,144.45z"/>
		<path class="st18" d="M83.93,148.66c0.53-0.58,0.84,2.81,0.9,5.08c0.12,2.28-0.13,3.43-0.67-1.7
			C84.1,151.56,83.63,149,83.93,148.66z"/>
		<path class="st18" d="M209.31,73.73C209.02,74.04,209.76,73.24,209.31,73.73L209.31,73.73z"/>
		<path class="st18" d="M83.98,159.78c-1.44,1.78,3.66,9.07,2.26,10.98C86.06,170.97,82.81,161.18,83.98,159.78z"/>
		<path class="st18" d="M85.65,172.6c0,0,1.88,3.6,1.51,4.14c-0.01,0.01-0.2-0.12-0.45-0.35c-0.26-0.23-0.58-0.57-0.86-0.97
			C85.28,174.63,84.94,173.57,85.65,172.6z"/>
		<path class="st18" d="M246.51,107.82c-0.32,0.49-1.77-1.6-1.45-2.1C245.38,105.2,246.83,107.31,246.51,107.82z"/>
		<path class="st18" d="M241.27,93.46c-0.19,0.53-2.06-1.16-1.88-1.71C239.56,91.19,241.51,92.87,241.27,93.46z"/>
		<path class="st18" d="M94.56,92.39c0.39-0.05,0.1,0.6-0.38,1.54c-0.45,0.97-1.15,2.21-1.83,3.27c-0.71,1.04-1.21,2.02-1.5,2.3
			c-0.28,0.28-0.28-0.1,0.26-1.65c-0.02,0.05,0.59-1.27,1.32-2.64c0.37-0.69,0.76-1.39,1.12-1.92
			C93.95,92.78,94.33,92.43,94.56,92.39z"/>
		<path class="st18" d="M86.47,183.02c-0.64,0.93,0.42,3.19,1.46,5.45c1.1,2.15,2.24,3.96,1.59,4.98c-0.06,0.09-1.1-1.96-2.05-4.3
			C86.64,186.56,85.96,183.75,86.47,183.02z"/>
		<path class="st18" d="M89.34,195.96c0.25-0.46,1.52,0.9,1.37,1.18C90.47,197.63,89.2,196.24,89.34,195.96z"/>
		<path class="st18" d="M248.63,114.06c-0.19,0.25-0.65-0.39-1-1.17c-0.37-0.75-0.66-1.61-0.43-1.93
			C247.56,110.44,249.14,113.36,248.63,114.06z"/>
		<path class="st18" d="M84.77,111.13c0.53-0.27,0.62,2.3,0.16,2.61c-0.26,0.15-0.45-0.43-0.52-1.1
			C84.37,112,84.5,111.27,84.77,111.13z"/>
		<path class="st18" d="M83.52,115.96c0.49-0.29,0.74,1.62,0.46,1.79C83.5,118.06,83.24,116.13,83.52,115.96z"/>
		<path class="st18" d="M81.96,125.03C82.35,124.72,81.34,125.51,81.96,125.03L81.96,125.03z"/>
		<path class="st18" d="M90.24,200.73c0.17-0.5,2.47,1.73,2.21,2.44C92.29,203.75,89.88,201.49,90.24,200.73z"/>
		<path class="st18" d="M92.82,205.69c0.11-0.52,2.65,1.43,2.48,2.15C95.22,208.44,92.53,206.5,92.82,205.69z"/>
		<path class="st18" d="M183.1,237.6c-0.29-0.43,1.41-0.97,1.58-0.72C185.02,237.32,183.29,237.85,183.1,237.6z"/>
		<path class="st18" d="M186.12,237.83c-0.34-0.48,2.42-1.37,2.91-0.95c0.21,0.19-0.36,0.66-1.09,0.9
			C187.23,238.01,186.36,238.11,186.12,237.83z"/>
		<path class="st18" d="M81.01,155.74C81.33,155.35,80.5,156.36,81.01,155.74L81.01,155.74z"/>
		<path class="st18" d="M81.93,164.36c0.35-0.45,1.27,1.35,1.06,1.61C82.64,166.44,81.72,164.63,81.93,164.36z"/>
		<path class="st18" d="M96.35,212.06c-0.05,0.54,0.43,1.13,1.16,1.74c0.75,0.59,1.65,1.28,2.75,1.76c2.14,1.02,4.06,2.08,4.26,3.15
			c0.02,0.04-0.58-0.12-1.35-0.56c-0.78-0.45-1.83-1.09-2.89-1.81c-1.11-0.67-2.07-1.57-2.78-2.37
			C96.77,213.18,96.3,212.49,96.35,212.06z"/>
		<path class="st18" d="M214.77,226.52C214.27,226.46,215.55,226.63,214.77,226.52L214.77,226.52z"/>
		<path class="st18" d="M252.26,130.96c-0.37,0.44-1.21-1.4-0.99-1.66C251.64,128.86,252.48,130.71,252.26,130.96z"/>
		<path class="st18" d="M167.41,55.03c0.43,0.37-1.36,1.22-1.61,1C165.36,55.66,167.16,54.81,167.41,55.03z"/>
		<path class="st18" d="M83.64,181.73c0.74-1.11,2.63,11.43,0.61,3.45C84.13,184.7,83.38,182.09,83.64,181.73z"/>
		<path class="st18" d="M109.74,224.22c-0.08-0.3,0.84,0.07,2.08,0.72c1.3,0.55,2.95,1.3,4.26,1.96c1.31,0.65,2.35,1.03,2.26,1.12
			c-0.04,0.03-0.35-0.03-1.02-0.23c-0.69-0.17-1.67-0.62-3.12-1.24c-0.76-0.34-1.86-0.7-2.77-1.11
			C110.55,224.98,109.82,224.54,109.74,224.22z"/>
		<path class="st18" d="M85.39,194.59c0.34-0.52,1.68,1.69,1.51,2.17c-0.12,0.26-0.64-0.11-1.03-0.65
			C85.51,195.56,85.23,194.86,85.39,194.59z"/>
		<path class="st18" d="M125.03,231.51c-0.18-0.35,0.55-0.3,1.66-0.12c1.12,0.14,2.61,0.43,3.92,0.75c2.62,0.58,4.56,1.09,1.09,0.96
			c0.06,0.03-1.48-0.15-3.11-0.43c-0.81-0.14-1.65-0.31-2.31-0.49C125.63,231.96,125.15,231.72,125.03,231.51z"/>
		<path class="st18" d="M135.09,233.66c-0.36-1.55,5.38-0.49,9.95,0.13c4.54,0.57,7.98,1.43,2.01,1.59c0.44-0.01-0.1-0.08-1.16-0.17
			c-1.06-0.14-2.63-0.34-4.25-0.55C138.41,234.16,135.03,233.51,135.09,233.66z"/>
		<path class="st18" d="M254.32,166.55c-0.43,0.37-0.96-1.56-0.73-1.79C254.02,164.38,254.6,166.33,254.32,166.55z"/>
		<path class="st18" d="M254.73,158.74c-0.46,0.43-1.33-2.93-0.78-3.49C254.42,154.79,255.34,158.18,254.73,158.74z"/>
		<path class="st18" d="M92.78,211.7c-0.05-1.36,7,7.5,1.6,2.01c-0.11-0.12-0.56-0.52-0.95-0.94
			C93.08,212.31,92.76,211.85,92.78,211.7z"/>
		<path class="st18" d="M152.33,235.3c-0.47-0.42,2.28-1.35,2.73-0.82c0.22,0.23-0.36,0.51-1.04,0.7
			C153.34,235.4,152.56,235.52,152.33,235.3z"/>
		<path class="st18" d="M161.29,235.96c0.02,0.02,0.42,0.08,1.11,0.2c0.68,0.11,1.65,0.27,2.82,0.46c2.3,0.44,5.39,1.12,8.43,1.87
			c3.05,0.72,6.12,1.39,8.53,1.63c1.21,0.15,2.26,0.15,3.07,0.23c0.81,0.03,1.38-0.01,1.64,0.03c0.71,0.25,5.94,0.46,5.87,0.26
			c-0.14-0.12-0.7,0.03-1.5,0.2c-0.81,0.13-1.86,0.39-2.98,0.62c-1.12,0.12-2.31,0.35-3.34,0.38c-1.03,0.03-1.91,0.03-2.39-0.01
			c-1.28-0.21-3.22-0.54-5.39-1.11c-2.17-0.57-4.57-1.31-6.84-2.01C165.76,237.29,161.61,236.35,161.29,235.96z"/>
		<path class="st18" d="M239.25,206.04c-0.6,0.07,0.29-2.5,0.91-2.58C240.78,203.37,239.87,205.95,239.25,206.04z"/>
		<path class="st18" d="M248.25,192.25C247.77,192.41,249.01,192,248.25,192.25L248.25,192.25z"/>
		<path class="st18" d="M98.58,219.28c-0.03-0.53,0.92,0.01,2.22,1.01c1.29,1.02,3.2,2.2,4.75,3.43c3.29,2.19,5.76,3.96,1.4,1.83
			c-0.07-0.04-0.68-0.32-1.51-0.79c-0.8-0.53-1.84-1.21-2.88-1.9c-0.52-0.36-1.04-0.72-1.53-1.06c-0.47-0.36-0.87-0.76-1.24-1.1
			C99.07,220.02,98.59,219.49,98.58,219.28z"/>
		<path class="st18" d="M194.61,241.13c-0.67-0.37,2.63-1.38,4.81-2.17c2.15-0.85,3.39-0.95-1.47,1.14
			C197.46,240.26,195.03,241.44,194.61,241.13z"/>
		<path class="st18" d="M211.11,233.3c-1.25-0.14,9.2-7.24,2.89-1.98C213.65,231.66,211.55,233.4,211.11,233.3z"/>
		<path class="st18" d="M116.79,231.42c-0.23-0.52,1.82-0.48,1.95-0.17C119,231.78,116.94,231.73,116.79,231.42z"/>
		<path class="st18" d="M120.94,232.96c0,0,1.05-0.03,2.12,0c1.07,0.04,2.17,0.15,2.34,0.44c0.01,0.01-0.19,0.13-0.51,0.25
			c-0.32,0.13-0.76,0.27-1.25,0.34C122.68,234.16,121.52,234.02,120.94,232.96z"/>
		<path class="st18" d="M255.36,178.14C254.92,178.43,256.05,177.69,255.36,178.14L255.36,178.14z"/>
		<path class="st18" d="M133.7,236.91c0.8,1.1,6.98-1.12,8.04,0.05c0,0-0.39,0.16-1,0.35c-0.61,0.17-1.44,0.38-2.34,0.51
			c-0.9,0.14-1.87,0.21-2.71,0.11C134.85,237.78,134.13,237.47,133.7,236.91z"/>
		<path class="st18" d="M144.38,237.92c-1.14-0.96,10.72-0.47,2.69,0.03C146.71,238,144.59,238.18,144.38,237.92z"/>
		<path class="st18" d="M151.48,237.88c-0.46-0.43,2.15-1.32,2.6-0.88C154.49,237.42,151.92,238.31,151.48,237.88z"/>
		<path class="st18" d="M165.11,239.33C164.84,238.89,165.53,240.01,165.11,239.33L165.11,239.33z"/>
		<path class="st18" d="M170.77,241.69c-0.31-0.54,2.46-0.65,2.77-0.1C173.85,242.13,171.08,242.23,170.77,241.69z"/>
		<path class="st18" d="M176.79,243.33c0.35,0.51,2.16,0.49,4.01,0.29c1.83-0.09,3.67-0.49,4.24,0.18c0,0-0.41,0.12-1.03,0.31
			c-0.63,0.16-1.53,0.42-2.46,0.48c-0.93,0.07-1.95,0.08-2.81-0.1C177.89,244.28,177.17,243.91,176.79,243.33z"/>
		<path class="st18" d="M186.87,244.68c0.39,0.34,1.21,0.43,2.2,0.2c0.99-0.25,2.17-0.62,3.29-1.12c1.11-0.54,2.2-1.06,3.12-1.39
			c0.9-0.41,1.65-0.6,2.16-0.36c-0.47-0.22-2.12,1.27-4.37,2.3C191.08,245.4,188.27,245.99,186.87,244.68z"/>
		<path class="st18" d="M213,236.16c0.57,0.1,1.3-0.33,2.08-1.03c0.77-0.72,1.6-1.71,2.42-2.7c1.64-1.98,3.16-4.03,4.41-3.9
			c0.11,0-1.57,2.03-3.57,4.01c-1.03,0.96-2.13,1.92-3.08,2.61C214.29,235.84,213.45,236.23,213,236.16z"/>
		<path class="st18" d="M224.51,227.45c2.18,0.14,5.2-7.88,7.33-7.93c-0.54-0.01-1.3,2.08-2.59,4.05
			C228.02,225.57,226.37,227.57,224.51,227.45z"/>
		<path class="st18" d="M233.09,219.49c-1.52,0.14,7.14-8.11,1.88-1.94C234.76,217.83,233.41,219.49,233.09,219.49z"/>
		<path class="st18" d="M239.19,212.86c-0.8,0.08,0.9-2.01,2.13-3.38c1.18-1.4,2.04-1.97-0.38,1.31
			C240.73,211.08,239.5,212.83,239.19,212.86z"/>
		<path class="st18" d="M243.18,207.96C242.66,208.04,243.98,207.83,243.18,207.96L243.18,207.96z"/>
		<path class="st18" d="M259.2,169.64C258.81,169.98,259.82,169.11,259.2,169.64L259.2,169.64z"/>
		<path class="st18" d="M278.59,141.25c-0.38,0.46-1.17-1.58-0.94-1.85C278.03,138.93,278.82,140.98,278.59,141.25z"/>
	</g>
	<g>
		<path d="M153.56,135.43c1.04-0.01,2.09-0.02,3.13-0.04c-0.21,4.11-0.14,8.23,0.24,12.36c0.2,2.19,3.66,2.21,3.45,0
			c-0.38-4.14-0.49-8.29-0.28-12.43c3.24-0.08,6.49-0.2,9.73-0.38c0.5,3.81,0.91,7.63,1.32,11.45c0.24,2.18,3.69,2.21,3.45,0
			c-0.78-7.12-1.33-14.42-2.91-21.41c-0.9-3.95-3.99-12.4-9.67-9.07c-3.33,1.96-3.9,6.98-4.42,10.41c-0.28,1.87-0.51,3.74-0.68,5.61
			c-1.12,0.02-2.25,0.03-3.37,0.04C151.34,132,151.34,135.45,153.56,135.43z M160.42,131.26c0.35-3.48,0.61-7.88,2.29-11.03
			c1.27-2.38,3.06-1.21,4.08,0.83c1.17,2.34,1.67,5.02,2.11,7.57c0.16,0.96,0.31,1.92,0.46,2.88c-3,0.16-5.99,0.27-8.99,0.35
			C160.38,131.67,160.4,131.47,160.42,131.26z"/>
		<path d="M200.36,121.23c-3.65,1.15-6.14,10.91-6.18,11.05c-0.37-2.17-0.43-4.16-1.38-7.81c-0.72-2.76-2.66-7.06-6.28-6.23
			c-4.23,0.97-5.35,6.74-5.92,10.31c-0.99,6.12-1.02,12.34-1.07,18.53c-0.02,2.22,3.43,2.22,3.45,0c0.04-4.68,0.07-9.37,0.51-14.04
			c0.22-2.34,0.53-4.68,1.15-6.95c0.39-1.43,0.72-4.55,2.87-4.28c1.32,0.17,2.01,3.35,2.37,4.82c0.95,3.84,1.43,7.33,1.82,11.26
			c0.25,2.53,0.19,5.58,0.32,8.12c0.11,2.21,3.53,2.23,3.45,0c-0.14-3.98,0.3-7.91,1.25-11.76c0.48-1.92,1.06-4.14,1.82-5.96
			c0.41-0.99,1.43-3.09,2.52-3.56c1.68-0.72,2.92,5.53,3.18,6.68c1.13,4.99,1.61,10.15,1.63,15.26c0.01,2.22,3.46,2.22,3.45,0
			c-0.03-6.14-0.62-12.52-2.33-18.44C206.18,125.38,204.36,119.97,200.36,121.23z"/>
		<path d="M219.68,139.25c-0.5-5.99-1.38-12.13-3.74-17.7c-2.4-5.69-6.59-9.52-12.37-11.76c-6.98-2.71-14.85-2.65-22.23-2.66
			c-6.21-0.01-12.42,0.18-18.62,0.47c-1.11,0.05-2.22,0.1-3.32,0.17c-2.21,0.13-2.22,3.58,0,3.45c9.34-0.53,18.74-0.84,28.09-0.54
			c7.16,0.23,15.08,0.92,20.79,5.73c3.64,3.07,5.28,7.84,6.35,12.33c2.51,10.54,2.21,21.67,1.83,32.42
			c-0.41,11.57-3.19,25.96-16.26,29.25c-6.17,1.55-12.81,1.69-19.13,2.07c-8.39,0.5-16.82,0.44-25.21-0.16
			c-3.61-0.26-7.23-0.6-10.79-1.26c-2.83-0.52-5.92-1.08-8.4-2.63c-3.98-2.49-6.39-7.13-8.08-11.36c-5.88-14.75-5.8-30.52-4.4-46.06
			c0.64-7.14,1.25-16.74,7.79-20.31c-1.27,8.61-2,17.52-0.63,25.95c0.61,3.74,2.08,8.64,6.38,9.47c5.78,1.11,10.52-5.88,11.04-10.9
			c0.47-4.55-3.06-5.84-7.12-6.02c1.21-0.82,2.36-1.72,3.41-2.64c3.87-3.4,7.57-9.26,5.27-14.54c-2.35-5.4-8.75-6.64-14.1-6.08
			c0.13-0.78,0.25-1.56,0.38-2.34c0.38-2.17-2.95-3.1-3.33-0.92c-0.23,1.33-0.46,2.66-0.68,4.01c-4.2,1.41-7.53,4.58-9.11,8.86
			c-1.66,4.48-2.16,9.45-2.63,14.17c-0.51,5.13-0.75,10.29-0.87,15.45c-0.17,7.21,0.42,14.11,1.9,21.21
			c1.96,9.37,5.59,22.44,15.55,26.26c7.19,2.75,15.57,3.05,23.18,3.4c9.05,0.43,18.04,0.07,27.07-0.59
			c6.6-0.48,13.87-0.73,19.64-4.36c5.53-3.49,8.91-9.27,10.67-15.44c1.69-5.93,1.87-12.11,2.04-18.23
			C220.2,151.37,220.19,145.29,219.68,139.25z M145.33,135c-0.32,2.86-4.24,9.85-7.93,7.32c-2.53-1.73-2.83-6.45-3.03-9.31
			C138.28,132.28,145.72,131.52,145.33,135z M136.65,109.35c2.35-0.21,5.21-0.17,7.34,0.91c3.15,1.58,4.15,4.58,3.06,7.82
			c-1.56,4.62-6.22,8.56-9.95,10.38c-1.32,0.64-2.9,0.73-2.9,0.73c-0.06-3.83,0.18-7.67,0.53-11.47c0.25-2.76,0.58-5.5,0.97-8.24
			C136.01,109.42,136.33,109.37,136.65,109.35z"/>
		<path d="M144.2,152.93c-2.69-0.65-5.46-0.6-8.14-0.06c-0.01-0.35-0.02-0.7-0.04-1.05c-0.08-2.21-3.53-2.22-3.45,0
			c0.02,0.67,0.05,1.35,0.07,2.02c-0.61,0.22-1.22,0.47-1.81,0.74c-2.02,0.92-0.27,3.9,1.74,2.98c0.07-0.03,0.15-0.06,0.22-0.1
			c0.35,6.75,1.09,13.51,3.69,19.8c1.7,4.11,4.47,8.94,9.73,7.88c4.76-0.96,6.59-7.84,4.97-11.95c-0.94-2.39-3.14-3.28-5.67-3.52
			c3.53-2.55,6.24-6.06,5.71-10.14C150.78,155.92,147.51,153.73,144.2,152.93z M147.95,174.33c0.83,1.39,0.18,4.05-0.37,5.43
			c-0.72,1.81-2.45,2.69-4.29,1.67c-2.38-1.32-3.73-4.93-4.58-7.92c0,0,2.47-0.84,3.81-1.02
			C144.55,172.22,146.85,172.48,147.95,174.33z M147.64,161.78c-1.16,3.82-5.55,7.31-9.81,8.29c-1.01-4.43-1.42-9.2-1.62-13.74
			c2.13-0.49,4.35-0.6,6.49-0.21C145.53,156.65,148.67,158.4,147.64,161.78z"/>
		<path d="M164.42,154.41c-0.21-0.09-0.46-0.13-0.74-0.12c-5.87,0.29-7.81,7.47-8.39,12.23c-0.71,5.86-0.43,14.52,5.51,17.81
			c4.31,2.38,8.82-0.25,10.66-4.37c1.28-2.86,1.69-6.07,1.88-9.17c0.2-3.39,0.16-6.82-1.28-9.96
			C170.68,157.82,167.76,155.08,164.42,154.41z M169.79,172.2c-0.25,2.61-0.69,5.82-2.39,7.95c-1.19,1.5-3.1,2.08-4.85,1.19
			c-2.65-1.35-3.59-4.87-3.9-7.57c-0.41-3.62-0.18-7.49,0.9-10.98c0.58-1.86,1.74-4.84,4.03-5.04c2.39,0.53,4.4,2.4,5.4,4.59
			C170.37,165.35,170.09,168.99,169.79,172.2z"/>
		<path d="M176.64,157.12c0.43,7.6,0.61,15.45,2.13,22.92c0.53,2.6,1.63,4.46,4.48,4.94c2.98,0.5,6.38-0.43,9.08-1.7
			c2.01-0.94,0.26-3.92-1.74-2.98c-1.9,0.89-5.04,1.86-7.11,1.22c-1.68-0.52-1.61-3.51-1.81-5c-0.88-6.42-1.21-12.94-1.58-19.4
			C179.97,154.91,176.52,154.9,176.64,157.12z"/>
		<path d="M191.04,167.48c-2.16,0.5-1.28,3.57,0.88,3.07c0.58-0.13,1.15-0.26,1.72-0.39c0.33,2.96,0.76,6.09,2.09,8.75
			c3.44,6.91,11.97-0.04,14.4-4.39c1.09-1.94-1.89-3.68-2.98-1.74c-1.19,2.13-4.2,5.38-6.87,5.62c-1.7,0.16-2.08-2.5-2.4-3.82
			c-0.42-1.72-0.71-3.47-0.93-5.23c2.67-0.7,5.28-1.55,7.78-2.84c1.97-1.02,0.31-3.81-1.66-2.79c-2.04,1.05-4.27,1.84-6.46,2.43
			c-0.19-2.52-0.27-5.31-0.4-7.8c3.53-0.03,7.06-0.22,10.46-1.25c2.12-0.64,1.22-3.97-0.92-3.33c-4.3,1.29-8.8,1.13-13.23,1.12
			c-2.22,0-2.22,3.45,0,3.45c0.08,0,0.16,0,0.24,0c0.15,2.78,0.35,5.84,0.59,8.62C192.59,167.15,191.8,167.3,191.04,167.48z"/>
	</g>
</g>
</svg>
